<svg width="22" height="22" viewBox="0 0 22 22" fill="none" xmlns="http://www.w3.org/2000/svg">
<path d="M7.57928 13.4567C7.41061 13.4567 7.29695 13.4732 7.23828 13.4897V14.5695C7.30795 14.586 7.39503 14.5906 7.51511 14.5906C7.9542 14.5906 8.22461 14.3687 8.22461 13.9938C8.22461 13.6583 7.99178 13.4567 7.57928 13.4567ZM10.7757 13.4677C10.5924 13.4677 10.4732 13.4842 10.4026 13.5007V15.8932C10.4732 15.9097 10.5869 15.9097 10.6895 15.9097C11.4384 15.9152 11.9261 15.5027 11.9261 14.63C11.9316 13.8692 11.487 13.4677 10.7757 13.4677Z" fill="#F24E1E"/>
<path d="M12.8346 1.83331H5.5013C5.01507 1.83331 4.54876 2.02647 4.20494 2.37028C3.86112 2.7141 3.66797 3.18042 3.66797 3.66665V18.3333C3.66797 18.8195 3.86112 19.2859 4.20494 19.6297C4.54876 19.9735 5.01507 20.1666 5.5013 20.1666H16.5013C16.9875 20.1666 17.4538 19.9735 17.7977 19.6297C18.1415 19.2859 18.3346 18.8195 18.3346 18.3333V7.33331L12.8346 1.83331ZM8.7078 14.8408C8.42455 15.1066 8.00655 15.2258 7.5198 15.2258C7.42542 15.2268 7.33109 15.2213 7.23747 15.2093V16.5165H6.41797V12.9085C6.7878 12.8533 7.16149 12.8282 7.53538 12.8333C8.04597 12.8333 8.40897 12.9305 8.65372 13.1257C8.88655 13.3109 9.04422 13.6143 9.04422 13.9718C9.0433 14.3311 8.92414 14.6346 8.7078 14.8408ZM12.1976 16.0829C11.8126 16.4028 11.2268 16.555 10.5109 16.555C10.0819 16.555 9.77847 16.5275 9.57222 16.5V12.9094C9.94219 12.8554 10.3158 12.83 10.6896 12.8333C11.3836 12.8333 11.8346 12.958 12.1866 13.2238C12.567 13.5061 12.8053 13.9562 12.8053 14.6025C12.8053 15.3019 12.5496 15.785 12.1976 16.0829ZM15.5846 13.5391H14.1803V14.3742H15.493V15.0471H14.1803V16.5174H13.3498V12.8608H15.5846V13.5391ZM12.8346 8.24998H11.918V3.66665L16.5013 8.24998H12.8346Z" fill="#F24E1E"/>
</svg>
